<svg xmlns="http://www.w3.org/2000/svg" width="520" height="280" viewBox="0 0 520 280" role="img" aria-label="Boutons d'alignement Word">
  <rect width="520" height="280" fill="#f3f4f6"/>
  <rect x="16" y="16" width="488" height="120" fill="#fff" stroke="#9ca3af"/>
  <text x="28" y="38" font-family="Segoe UI, sans-serif" font-size="11" fill="#6b7280">Paragraphe</text>
  <g transform="translate(28,48)">
    <rect width="36" height="32" fill="#fff" stroke="#d1d5db"/>
    <line x1="8" y1="10" x2="28" y2="10" stroke="#374151" stroke-width="2"/>
    <line x1="8" y1="16" x2="24" y2="16" stroke="#374151"/>
    <line x1="8" y1="22" x2="26" y2="22" stroke="#374151"/>
    <text x="48" y="22" font-family="Segoe UI, sans-serif" font-size="12" font-weight="600">Aligné ŕ gauche</text>
    <path d="M 130 16 L 150 26 L 130 36" fill="none" stroke="#dc2626" stroke-width="2"/>
  </g>
  <g transform="translate(28,88)">
    <rect x="40" width="36" height="32" fill="#fff" stroke="#d1d5db"/>
    <line x1="48" y1="16" x2="68" y2="16" stroke="#374151" stroke-width="2"/>
    <line x1="50" y1="22" x2="66" y2="22" stroke="#374151"/>
    <text x="88" y="22" font-family="Segoe UI, sans-serif" font-size="12" font-weight="600">Centré</text>
    <path d="M 170 16 L 190 26 L 170 36" fill="none" stroke="#dc2626" stroke-width="2"/>
  </g>
  <g transform="translate(28,128)">
    <rect x="80" width="36" height="32" fill="#fff" stroke="#d1d5db"/>
    <line x1="88" y1="10" x2="108" y2="10" stroke="#374151"/>
    <line x1="92" y1="16" x2="112" y2="16" stroke="#374151" stroke-width="2"/>
    <line x1="90" y1="22" x2="110" y2="22" stroke="#374151"/>
    <text x="128" y="22" font-family="Segoe UI, sans-serif" font-size="12" font-weight="600">Aligné ŕ droite</text>
    <path d="M 250 16 L 270 26 L 250 36" fill="none" stroke="#dc2626" stroke-width="2"/>
  </g>
  <g transform="translate(28,168)">
    <rect x="120" width="36" height="32" fill="#fef3c7" stroke="#f59e0b"/>
    <line x1="128" y1="10" x2="148" y2="10" stroke="#374151"/>
    <line x1="128" y1="16" x2="148" y2="16" stroke="#374151" stroke-width="2"/>
    <line x1="128" y1="22" x2="148" y2="22" stroke="#374151"/>
    <text x="168" y="22" font-family="Segoe UI, sans-serif" font-size="12" font-weight="600">Justifié</text>
    <path d="M 250 16 L 270 26 L 250 36" fill="none" stroke="#dc2626" stroke-width="2"/>
  </g>
  <text x="28" y="240" font-family="Segoe UI, sans-serif" font-size="13" fill="#111827">4 alignements : gauche, centré, droite, justifié (groupe Paragraphe  Accueil)</text>
</svg>
